<svg xmlns="http://www.w3.org/2000/svg" viewBox="314 314 574 574" width="32" height="32">
  <!-- Quantum Pipeline – Favicon (center quantum node only) -->
  <g transform="translate(0,1124) scale(0.1,-0.1)" stroke="none">
    <path fill="#7C4DFF" d="M5390 7886 c-780 -91 -1438 -541 -1794 -1227 -266 -512 -324 -1121
-162 -1681 172 -588 610 -1111 1164 -1387 233 -117 456 -188 713 -228 158 -24
474 -24 622 1 420 69 766 216 1086 463 l84 65 376 -376 376 -376 -145 -145
c-79 -79 -142 -146 -140 -148 11 -9 1091 -274 1094 -268 1 3 -32 159 -75 346
-44 187 -100 432 -125 545 -26 113 -49 209 -51 214 -3 4 -72 -59 -154 -140
l-149 -149 -376 376 -377 377 60 78 c215 284 351 568 421 885 47 207 57 296
56 509 -1 508 -151 957 -454 1365 -150 202 -422 449 -643 584 -248 151 -550
260 -848 305 -147 23 -418 28 -559 12z m-30 -1844 l0 -918 -127 -76 c-71 -42
-147 -86 -170 -97 -43 -21 -43 -21 -43 994 l0 1015 170 0 170 0 0 -918z m570
638 c140 -128 328 -300 418 -382 187 -173 183 -132 30 -305 -79 -91 -92 -102
-107 -90 -10 6 -119 104 -242 217 -123 113 -266 243 -316 289 l-93 84 0 235
c0 236 0 236 28 210 15 -14 142 -130 282 -258z m931 204 c117 -35 189 -154
175 -290 -15 -144 -86 -295 -248 -525 -37 -53 -68 -99 -68 -101 0 -5 246 -233
339 -315 35 -30 35 -30 -35 -95 -38 -35 -145 -134 -239 -218 -93 -85 -348
-316 -565 -515 -217 -199 -441 -403 -497 -454 l-103 -93 1 239 0 238 127 112
c178 156 816 742 820 752 1 4 -18 25 -43 45 -46 38 -46 38 -169 -81 -250 -242
-546 -480 -828 -667 l-168 -110 0 -263 0 -263 -170 0 -170 0 0 175 c0 96 -1
175 -3 175 -2 0 -52 -18 -112 -41 -166 -62 -311 -92 -415 -86 -106 7 -149 21
-201 65 -64 55 -83 102 -83 202 3 230 194 546 546 901 l143 144 3 -103 c3
-102 3 -102 -96 -210 -133 -148 -210 -242 -282 -351 -142 -211 -196 -406 -131
-465 27 -24 114 -35 195 -24 414 57 1083 472 1659 1029 386 372 637 739 637
930 0 99 -38 124 -174 116 -109 -6 -226 -39 -386 -107 l-115 -49 -52 51 c-29
29 -53 56 -53 60 0 11 164 87 272 127 211 78 373 99 489 65z"/>
  </g>
</svg>